<?xml version="1.0" encoding="UTF-8" standalone="no"?>
<!-- Created with Inkscape (http://www.inkscape.org/) -->

<svg
   xmlns:dc="http://purl.org/dc/elements/1.1/"
   xmlns:cc="http://creativecommons.org/ns#"
   xmlns:rdf="http://www.w3.org/1999/02/22-rdf-syntax-ns#"
   xmlns:svg="http://www.w3.org/2000/svg"
   xmlns="http://www.w3.org/2000/svg"
   xmlns:sodipodi="http://sodipodi.sourceforge.net/DTD/sodipodi-0.dtd"
   xmlns:inkscape="http://www.inkscape.org/namespaces/inkscape"
   version="1.1"
   id="svg2"
   width="270"
   height="270"
   viewBox="0 0 270 270"
   sodipodi:docname="logo_black.svg"
   inkscape:version="0.92.3 (2405546, 2018-03-11)">
  <metadata
     id="metadata8">
    <rdf:RDF>
      <cc:Work
         rdf:about="">
        <dc:format>image/svg+xml</dc:format>
        <dc:type
           rdf:resource="http://purl.org/dc/dcmitype/StillImage" />
        <dc:title />
      </cc:Work>
    </rdf:RDF>
  </metadata>
  <defs
     id="defs6" />
  <sodipodi:namedview
     pagecolor="#ffffff"
     bordercolor="#666666"
     borderopacity="1"
     objecttolerance="10"
     gridtolerance="10"
     guidetolerance="10"
     inkscape:pageopacity="0"
     inkscape:pageshadow="2"
     inkscape:window-width="1920"
     inkscape:window-height="1001"
     id="namedview4"
     showgrid="false"
     inkscape:zoom="2.4722548"
     inkscape:cx="26.58281"
     inkscape:cy="143.06273"
     inkscape:window-x="-9"
     inkscape:window-y="-9"
     inkscape:window-maximized="1"
     inkscape:current-layer="svg2" />
  <path
     style="fill:#000000"
     d="m 97.41128,257.7688 c -1.06702,-1.28568 -0.755356,-2.75859 1.85148,-8.75 1.72395,-3.96225 5.36031,-13.55611 8.0808,-21.31969 l 4.94633,-14.11561 -3.86386,-1.15764 C 101.45266,210.33659 85.171178,201.31521 78.181162,195.66754 65.616527,185.51578 53.976669,168.22088 49.969064,153.74905 c -0.90385,-3.26389 -2.039329,-6.83434 -2.523285,-7.93434 -0.483957,-1.1 -1.15763,-3.42037 -1.497051,-5.15637 -0.448148,-2.2921 -1.314076,-3.3313 -3.162397,-3.7952 -3.901623,-0.97924 -7.345496,-3.57754 -10.483595,-7.90956 -5.381592,-7.42908 -3.353564,-19.09079 4.28186,-24.62186 2.088371,-1.51281 5.572944,-3.03454 7.743495,-3.38163 3.858339,-0.61697 3.994671,-0.78182 6.105816,-7.383221 4.042994,-12.642148 14.587992,-28.315795 24.757451,-36.798445 3.166912,-2.641616 6.285025,-5.436828 6.92914,-6.211581 1.295875,-1.558701 7.664897,-5.301691 13.828881,-8.127052 2.200001,-1.008405 6.116171,-2.798356 8.702591,-3.977669 8.47231,-3.863055 17.41303,-5.387792 31.79741,-5.42268 18.86358,-0.04575 24.22946,1.235024 43.76026,10.445095 6.88731,3.247824 19.34123,12.808589 24.46261,18.779738 3.19678,3.727211 3.43852,3.819291 9.85983,3.755704 8.04633,-0.07968 12.71879,2.403479 16.42615,8.729614 4.40028,7.508506 3.38165,14.504493 -3.14703,21.613993 l -2.33147,2.538877 1.60594,8.461127 c 1.19957,6.32009 1.47112,11.8772 1.07313,21.96112 -0.93767,23.75844 -7.82333,40.23722 -24.08856,57.6488 -16.80948,17.99419 -35.99676,27.52528 -58.45287,29.03587 -9.15959,0.61615 -9.38131,0.69136 -12,4.0705 -6.21945,8.02553 -30.43974,36.84805 -31.92802,37.99483 -2.10114,1.61902 -2.72461,1.5759 -4.27807,-0.29591 z m 31.27921,-40.54315 c 8.54203,-10.22399 17.20735,-20.92247 19.25627,-23.7744 2.04891,-2.85194 4.57519,-5.64019 5.61396,-6.19613 1.03876,-0.55593 1.88866,-1.48495 1.88866,-2.06449 0,-0.91986 12.54415,-16.34944 24.28893,-29.87592 l 3.90726,-4.5 -20.84809,-0.5 c -20.50124,-0.49168 -20.85328,-0.53637 -21.1593,-2.68627 -0.18544,-1.30279 6.86286,-16.54741 17.44193,-37.72474 9.76421,-19.546162 17.40497,-35.887343 16.97946,-36.313734 -0.42551,-0.426392 -11.28607,-0.923728 -24.13457,-1.105191 l -23.36092,-0.329933 -2.4239,4.829933 c -1.33315,2.656463 -4.0963,9.104933 -6.14035,14.329933 -2.04404,5.225 -4.96401,11.975002 -6.48881,15.000002 -1.5248,3.025 -3.11502,6.625 -3.53382,8 -0.89033,2.92316 -7.6804,19.27673 -11.0029,26.5 -3.985599,8.66488 -9.52492,22.87021 -9.52492,24.42621 0,0.50312 8.57397,0.64709 19.84833,0.33329 22.55687,-0.62784 25.15167,-0.30387 25.15167,3.14026 0,2.40026 -5.59382,18.81459 -8.89466,26.10024 -0.99673,2.2 -3.73183,9.625 -6.07798,16.5 -2.34616,6.875 -4.75486,13.4 -5.35267,14.5 -1.30269,2.39702 -4.59597,11.6001 -4.64204,12.97222 -0.0456,1.35913 1.63245,-0.52451 19.20846,-21.56128 z m 31.75889,-9.61102 c 10.29735,-3.09435 22.41113,-9.03799 29.85401,-14.64791 6.0178,-4.53579 18.31198,-18.37464 20.56782,-23.15201 10.33117,-21.87907 12.57817,-29.86235 12.57817,-44.68839 0,-8.94346 -1.67672,-20.59955 -3.24546,-22.56161 -0.54969,-0.6875 -2.96022,-1.25 -5.35675,-1.25 -5.76117,0 -11.60286,-2.433525 -14.16696,-5.901652 -4.78632,-6.473849 -5.02945,-16.168838 -0.57027,-22.73981 l 2.38453,-3.513801 -3.15012,-3.977356 c -3.86747,-4.883077 -15.62923,-13.694853 -23.75401,-17.796225 -8.77024,-4.427206 -28.1987,-9.172574 -38.14096,-9.315864 -4.38424,-0.06319 -21.21886,2.691129 -25.9932,4.252751 -16.106149,5.26811 -22.232302,8.824674 -34.106311,19.800559 -6.250649,5.777864 -15.900489,18.51802 -15.900489,20.992546 0,0.567701 -0.422916,1.182183 -0.939812,1.365517 -1.360122,0.482409 -7.200502,16.833335 -6.012692,16.833335 0.548455,0 2.972162,1.82046 5.386017,4.04548 4.898859,4.51561 7.28381,11.26747 6.061535,17.16038 -1.061253,5.11657 -5.29036,10.51664 -10.034965,12.81346 -4.158213,2.01296 -4.295458,2.22531 -3.739123,5.78517 1.100805,7.04381 5.869368,19.7314 10.221288,27.19551 5.235729,8.97996 19.697319,23.90296 28.926818,29.84975 5.98278,3.85486 22.455264,10.15926 23.587164,9.02735 0.28366,-0.28366 2.52109,-6.23607 4.97206,-13.22757 2.45096,-6.9915 5.15727,-14.11694 6.01401,-15.83431 2.98145,-5.97646 3.53213,-5.81522 -19.86051,-5.81522 -11.78002,0 -22.13002,-0.27314 -23.000004,-0.60699 -2.655571,-1.01904 -1.804897,-4.9984 3.418213,-15.99002 2.750001,-5.78716 5,-10.87088 5,-11.29715 0,-0.42627 4.05,-10.1738 9.000001,-21.66118 4.95,-11.48739 9,-21.27328 9,-21.74643 0,-0.47315 1.49507,-3.861314 3.32237,-7.529252 1.82731,-3.667939 5.01224,-11.05648 7.07763,-16.41898 l 3.75525,-9.75 h 28.84059 c 15.86232,0 29.55239,0.273145 30.42237,0.606989 0.86999,0.333844 1.58179,1.177949 1.58179,1.87579 0,0.69784 -8.09315,17.412195 -17.98477,37.143013 -9.89162,19.73082 -17.99162,36.43671 -18,37.12421 -0.0117,0.96248 5.03151,1.25 21.92575,1.25 12.06754,0 22.16022,0.35472 22.42817,0.78827 0.69972,1.13217 -3.17397,6.11674 -28.11915,36.1831 -12.2375,14.74983 -22.25,27.34286 -22.25,27.98452 0,1.62163 7.39734,0.53013 18,-2.65597 z M 54.509695,130.28243 c 0.878424,-0.47012 2.799411,-3.1721 4.26886,-6.00439 l 2.671726,-5.14964 -2.292716,-4.65684 c -4.346416,-8.82822 -13.572384,-10.49265 -20.387054,-3.67798 -2.694391,2.69439 -3.321131,4.10422 -3.321131,7.47079 0,6.33673 3.674617,12.11291 8.5,13.36128 2.376811,0.6149 8.31216,-0.14004 10.560315,-1.34322 z M 221.01749,94.850697 c 7.17949,-2.999781 8.66469,-15.258294 2.51443,-20.753548 -2.52278,-2.254106 -4.05996,-2.782441 -8.09544,-2.782441 -4.3189,0 -5.51366,0.480917 -8.98422,3.616362 -3.6138,3.264853 -4.00288,4.083594 -4.00288,8.423275 0,9.940987 8.98155,15.501871 18.56811,11.496352 z"
     id="path4520"
     inkscape:connector-curvature="0" />
</svg>
